<?xml version="1.0" encoding="utf-8" ?>
<svg xmlns="http://www.w3.org/2000/svg" xmlns:xlink="http://www.w3.org/1999/xlink" width="1024" height="1024">
	<g>
		<defs>
			<linearGradient id="gradient_0" gradientUnits="userSpaceOnUse" x1="696.37329" y1="734.7196" x2="328.21109" y2="301.05774">
				<stop offset="0" stop-color="#122B44"/>
				<stop offset="1" stop-color="#496977"/>
			</linearGradient>
		</defs>
		<path fill="url(#gradient_0)" d="M342.975 260.349Q343.722 259.153 344.526 257.995Q345.331 256.836 346.191 255.719Q347.051 254.602 347.965 253.528Q348.879 252.454 349.845 251.427Q350.811 250.399 351.826 249.42Q352.841 248.441 353.903 247.513Q354.965 246.586 356.071 245.711Q357.177 244.836 358.324 244.017Q359.472 243.198 360.659 242.436Q361.845 241.674 363.068 240.971Q364.29 240.268 365.546 239.626Q366.801 238.984 368.087 238.404Q369.372 237.825 370.685 237.309Q371.997 236.793 373.333 236.342Q374.67 235.892 376.026 235.507Q377.383 235.123 378.757 234.805Q381.631 234.155 384.555 233.797Q387.48 233.439 390.425 233.376Q393.371 233.313 396.308 233.545Q399.245 233.777 402.144 234.303C410.678 235.91 418.976 238.966 427.238 241.589L459.843 251.727L563.194 285.193C579.543 290.566 595.737 296.329 612.174 301.445C613.278 301.938 614.057 302.029 615.261 302.065Q636.355 301.87 657.449 301.985C667.913 301.999 680.064 300.614 690.183 303.346C695.51 304.784 700.166 307.274 704.941 309.959C706.51 310.841 708.684 312.489 710.361 312.978L716.189 312.99C731.166 313.163 747.057 319.182 757.605 329.965C762.879 335.356 766.103 341.735 770.599 347.626C783.355 358.919 794.798 375.012 795.954 392.54C796.239 396.861 796.304 401.419 795.579 405.7C793.911 415.539 791.044 425.16 788.404 434.77L777.988 472.603L769.513 504.032C768.061 509.49 766.876 515.315 765.013 520.635Q752.526 564.63 741.042 608.897Q737.904 620.526 735.035 632.224C733.588 638.221 732.402 644.669 730.261 650.451C729.806 653.754 728.676 657.16 728.506 660.444C727.282 684.2 732.476 701.8 714.008 721.241C713.889 735.626 707.708 748.495 697.536 758.543C693.252 762.775 688.406 766.199 683.494 769.652C682.948 770.679 682.078 771.914 681.811 773.031C671.973 787.307 660.297 796.424 642.856 799.613Q641.168 799.919 639.473 800.181C616.802 801.451 597.477 791.994 576.441 785.516L528.898 770.991C520.801 768.588 512.596 766.493 504.541 763.957C494.269 760.723 484.362 756.3 473.908 753.629C471.999 752.475 432.682 739.924 429.627 739.37L427.01 737.972C424.854 737.511 422.645 737.248 420.465 736.922C418.436 737.945 350.643 737.401 344.935 736.906C327.728 735.415 315.135 725.328 304.33 712.564C299.134 712.868 293.27 711.375 288.332 709.828C270.789 704.335 251.852 696.596 242.744 679.512C236.318 669.959 233.933 656.562 234.574 645.223C235.156 634.939 239.071 624.364 241.683 614.386C245.201 600.948 248.415 587.429 252.06 574.025C255.408 561.71 259.402 549.189 261.77 536.664C262.469 533.956 263.064 531.189 264.149 528.605C267.81 511.996 272.538 495.237 277.219 478.879L287.148 439.725C289.408 430.8 291.457 421.751 294.228 412.972C295.643 407.899 295.221 401.966 295.244 396.732L295.16 365.711C295.13 358.104 294.523 350.144 296.085 342.664C298.74 329.954 306.687 316.61 317.728 309.452C317.322 305.722 317.318 301.332 317.645 297.599C319.187 280.014 330.527 270.87 342.975 260.349Z"/>
		<defs>
			<linearGradient id="gradient_1" gradientUnits="userSpaceOnUse" x1="700.72205" y1="466.00241" x2="790.69116" y2="448.02206">
				<stop offset="0" stop-color="#B35958"/>
				<stop offset="1" stop-color="#F67D7B"/>
			</linearGradient>
		</defs>
		<path fill="url(#gradient_1)" d="M710.361 312.978L716.189 312.99C731.166 313.163 747.057 319.182 757.605 329.965C762.879 335.356 766.103 341.735 770.599 347.626C783.355 358.919 794.798 375.012 795.954 392.54C796.239 396.861 796.304 401.419 795.579 405.7C793.911 415.539 791.044 425.16 788.404 434.77L777.988 472.603L769.513 504.032C768.061 509.49 766.876 515.315 765.013 520.635Q752.526 564.63 741.042 608.897Q737.904 620.526 735.035 632.224C733.588 638.221 732.402 644.669 730.261 650.451C728.131 646.115 728.89 623.449 729.083 617.54C728.06 613.474 728.603 608.557 728.71 604.361L729.409 479C729.331 453.609 728.55 428.178 729.076 402.791C728.649 390.467 729.04 378.005 729.035 365.665C729.032 357.095 729.319 348.107 727.434 339.704C726.36 334.92 724.452 330.731 722.273 326.358C718.967 321.088 714.831 317.218 710.361 312.978Z"/>
		<defs>
			<linearGradient id="gradient_2" gradientUnits="userSpaceOnUse" x1="764.64325" y1="435.25314" x2="792.12659" y2="437.27423">
				<stop offset="0" stop-color="#1782AF"/>
				<stop offset="1" stop-color="#249FDC"/>
			</linearGradient>
		</defs>
		<path fill="url(#gradient_2)" d="M770.599 347.626C783.355 358.919 794.798 375.012 795.954 392.54C796.239 396.861 796.304 401.419 795.579 405.7C793.911 415.539 791.044 425.16 788.404 434.77L777.988 472.603L769.513 504.032C768.061 509.49 766.876 515.315 765.013 520.635L763.356 519.706C763.468 519.389 763.575 519.069 763.694 518.754C763.978 517.997 764.521 517.012 764.556 516.203C764.626 514.587 763.917 512.341 763.669 510.704C762.994 506.247 762.467 501.738 762.729 497.222C763.064 491.449 764.243 485.773 764.432 479.974C764.659 473.025 764.831 465.95 764.624 459.001C764.486 454.372 764.067 449.725 764.146 445.094C764.215 441.075 766.071 436.835 765.623 432.952L764.627 432.43C767.347 414.948 776.044 385.458 775.242 369.241C774.865 361.624 772.904 354.819 770.599 347.626Z"/>
		<defs>
			<linearGradient id="gradient_3" gradientUnits="userSpaceOnUse" x1="762.65417" y1="540.3587" x2="734.15448" y2="538.71667">
				<stop offset="0" stop-color="#208BA5"/>
				<stop offset="1" stop-color="#085B77"/>
			</linearGradient>
		</defs>
		<path fill="url(#gradient_3)" d="M764.627 432.43L765.623 432.952C766.071 436.835 764.215 441.075 764.146 445.094C764.067 449.725 764.486 454.372 764.624 459.001C764.831 465.95 764.659 473.025 764.432 479.974C764.243 485.773 763.064 491.449 762.729 497.222C762.467 501.738 762.994 506.247 763.669 510.704C763.917 512.341 764.626 514.587 764.556 516.203C764.521 517.012 763.978 517.997 763.694 518.754C763.575 519.069 763.468 519.389 763.356 519.706L765.013 520.635Q752.526 564.63 741.042 608.897Q737.904 620.526 735.035 632.224C733.588 638.221 732.402 644.669 730.261 650.451C728.131 646.115 728.89 623.449 729.083 617.54C732.613 601.673 735.204 585.546 738.313 569.583L764.627 432.43Z"/>
		<path fill="#A35152" d="M722.273 326.358C730.07 332.861 732.221 343.912 733.095 353.594C734.507 369.247 733.288 385.172 733.963 400.876L733.356 402.646L732.824 402.754C732.157 400.907 731.531 399.406 730.301 397.856C730.202 397.731 730.099 397.609 729.998 397.486C731.555 402.332 729.858 422.715 730.109 429.535C730.291 434.487 732.237 438.576 732.953 443.332C733.696 448.269 733.615 470.539 731.671 474.442C731.608 474.568 731.523 474.681 731.449 474.801C729.691 468.308 730.802 461.233 730.523 454.585L730.132 454.582L730.385 454.233C729.564 473.707 729.788 493.87 730.404 513.354C730.609 510.5 730.171 504.277 732.199 502.185C732.332 502.048 732.524 501.985 732.686 501.885C732.713 503.245 732.272 504.443 732.241 505.773C732.157 509.382 733.136 512.059 732.194 515.714L731.931 513.619C731.16 514.641 731.523 514.108 730.846 515.219L730.282 515.185C730.221 516.953 729.959 518.796 730.465 520.5L731.741 519.753C733.961 526.566 730.063 537.806 732.266 544.644L731.835 545.253C731.445 544.6 731.437 544.315 731.367 543.576C730.099 544.934 730.243 550.056 730.209 552.029L730.509 552.29L731.333 547.644L731.609 547.515C731.756 552.817 732.973 560.158 731.976 565.196C731.13 564.475 730.95 560.91 730.388 559.488C730.022 564.841 730.065 602.436 728.71 604.361L729.409 479C729.331 453.609 728.55 428.178 729.076 402.791C728.649 390.467 729.04 378.005 729.035 365.665C729.032 357.095 729.319 348.107 727.434 339.704C726.36 334.92 724.452 330.731 722.273 326.358Z"/>
		<path fill="#EF5377" d="M710.361 312.978L716.189 312.99L713.884 314.101C713.951 315.241 713.913 315.2 714.738 315.903C716.906 317.752 719.911 318.644 722.096 320.502C723.588 321.77 724.508 323.801 725.668 325.37C730.662 332.128 735.176 336.881 736.208 345.584C738.952 368.719 736.147 392.245 735.466 415.389L734.935 415.599L735.232 416.978L735.123 416.955C734.301 412.927 734.351 408.625 734.155 404.523L734.036 404.666C733.854 403.336 733.876 402.206 733.963 400.876C733.288 385.172 734.507 369.247 733.095 353.594C732.221 343.912 730.07 332.861 722.273 326.358C718.967 321.088 714.831 317.218 710.361 312.978Z"/>
		<path fill="#0DD2A8" d="M342.975 260.349Q343.722 259.153 344.526 257.995Q345.331 256.836 346.191 255.719Q347.051 254.602 347.965 253.528Q348.879 252.454 349.845 251.427Q350.811 250.399 351.826 249.42Q352.841 248.441 353.903 247.513Q354.965 246.586 356.071 245.711Q357.177 244.836 358.324 244.017Q359.472 243.198 360.659 242.436Q361.845 241.674 363.068 240.971Q364.29 240.268 365.546 239.626Q366.801 238.984 368.087 238.404Q369.372 237.825 370.685 237.309Q371.997 236.793 373.333 236.342Q374.67 235.892 376.026 235.507Q377.383 235.123 378.757 234.805Q381.631 234.155 384.555 233.797Q387.48 233.439 390.425 233.376Q393.371 233.313 396.308 233.545Q399.245 233.777 402.144 234.303C410.678 235.91 418.976 238.966 427.238 241.589L459.843 251.727L563.194 285.193C579.543 290.566 595.737 296.329 612.174 301.445C605.384 303.305 592.991 302.306 586.056 300.667L586.365 301.571C584.524 302.293 551.923 301.531 547.187 301.5Q476.202 300.728 405.212 300.898L364.577 300.787C356.284 300.767 347.711 300.385 339.464 301.226C334.64 301.719 329.229 303.17 325.074 305.699C322.439 306.619 320.12 308.045 317.728 309.452C317.322 305.722 317.318 301.332 317.645 297.599C319.187 280.014 330.527 270.87 342.975 260.349Z"/>
		<path fill="#EF5377" d="M342.975 260.349Q343.722 259.153 344.526 257.995Q345.331 256.836 346.191 255.719Q347.051 254.602 347.965 253.528Q348.879 252.454 349.845 251.427Q350.811 250.399 351.826 249.42Q352.841 248.441 353.903 247.513Q354.965 246.586 356.071 245.711Q357.177 244.836 358.324 244.017Q359.472 243.198 360.659 242.436Q361.845 241.674 363.068 240.971Q364.29 240.268 365.546 239.626Q366.801 238.984 368.087 238.404Q369.372 237.825 370.685 237.309Q371.997 236.793 373.333 236.342Q374.67 235.892 376.026 235.507Q377.383 235.123 378.757 234.805Q381.631 234.155 384.555 233.797Q387.48 233.439 390.425 233.376Q393.371 233.313 396.308 233.545Q399.245 233.777 402.144 234.303C410.678 235.91 418.976 238.966 427.238 241.589L459.843 251.727L563.194 285.193C579.543 290.566 595.737 296.329 612.174 301.445C605.384 303.305 592.991 302.306 586.056 300.667L430.445 264.896C414.133 261.287 387.372 253.367 371.804 253.122C361.267 252.956 352.752 257.203 342.975 260.349Z"/>
		<defs>
			<linearGradient id="gradient_4" gradientUnits="userSpaceOnUse" x1="603.64001" y1="726.92462" x2="605.00098" y2="777.34949">
				<stop offset="0" stop-color="#A1254E"/>
				<stop offset="1" stop-color="#E03F75"/>
			</linearGradient>
		</defs>
		<path fill="url(#gradient_4)" d="M714.008 721.241C713.889 735.626 707.708 748.495 697.536 758.543C693.252 762.775 688.406 766.199 683.494 769.652C682.948 770.679 682.078 771.914 681.811 773.031C671.973 787.307 660.297 796.424 642.856 799.613Q641.168 799.919 639.473 800.181C616.802 801.451 597.477 791.994 576.441 785.516L528.898 770.991C520.801 768.588 512.596 766.493 504.541 763.957C494.269 760.723 484.362 756.3 473.908 753.629C471.999 752.475 432.682 739.924 429.627 739.37L427.01 737.972C431.947 736.57 441.227 737.459 446.552 737.454L486.563 737.417C489.348 735.857 497.43 736.909 501.171 736.643C542.331 736.097 583.569 736.327 624.734 736.339L659.579 736.248C669.155 736.202 679.075 736.757 688.488 734.805C698.451 732.74 706.622 728.146 714.008 721.241Z"/>
		<defs>
			<linearGradient id="gradient_5" gradientUnits="userSpaceOnUse" x1="556.17651" y1="739.9892" x2="554.58429" y2="796.96222">
				<stop offset="0" stop-color="#257095"/>
				<stop offset="1" stop-color="#3AA5E4"/>
			</linearGradient>
		</defs>
		<path fill="url(#gradient_5)" d="M427.01 737.972C431.947 736.57 441.227 737.459 446.552 737.454L486.563 737.417Q535.485 748.703 584.12 761.163L623.4 771.608C632.47 773.935 641.906 776.788 651.299 777.167C662.335 777.612 673.422 773.738 683.494 769.652C682.948 770.679 682.078 771.914 681.811 773.031C671.973 787.307 660.297 796.424 642.856 799.613Q641.168 799.919 639.473 800.181C616.802 801.451 597.477 791.994 576.441 785.516L528.898 770.991C520.801 768.588 512.596 766.493 504.541 763.957C494.269 760.723 484.362 756.3 473.908 753.629C471.999 752.475 432.682 739.924 429.627 739.37L427.01 737.972Z"/>
		<defs>
			<linearGradient id="gradient_6" gradientUnits="userSpaceOnUse" x1="324.63071" y1="570.13684" x2="257.7037" y2="558.90942">
				<stop offset="0" stop-color="#04AA57"/>
				<stop offset="1" stop-color="#11B9D1"/>
			</linearGradient>
		</defs>
		<path fill="url(#gradient_6)" d="M294.228 412.972C295.936 417.195 294.51 454.999 294.451 462.547C294.044 514.076 294.671 565.69 294.967 617.226Q295.029 637.399 294.843 657.571C294.755 668.232 294.364 679.236 295.721 689.825C296.801 698.251 299.898 705.387 304.33 712.564C299.134 712.868 293.27 711.375 288.332 709.828C270.789 704.335 251.852 696.596 242.744 679.512C236.318 669.959 233.933 656.562 234.574 645.223C235.156 634.939 239.071 624.364 241.683 614.386C245.201 600.948 248.415 587.429 252.06 574.025C255.408 561.71 259.402 549.189 261.77 536.664C262.469 533.956 263.064 531.189 264.149 528.605C267.81 511.996 272.538 495.237 277.219 478.879L287.148 439.725C289.408 430.8 291.457 421.751 294.228 412.972Z"/>
		<path fill="#12B2DD" d="M261.77 536.664L263.292 537.59C263.537 537.495 263.782 537.398 264.028 537.306C264.756 537.035 265.428 536.84 266.182 536.67C267.892 539.966 256.772 580.212 255.256 586.736C253.638 593.695 253.297 601.17 252.464 608.268C251.676 614.986 250.454 621.668 249.359 628.342C248.684 632.449 248.273 636.676 247.001 640.652C245.569 645.132 243.393 649.645 242.349 654.212C241.564 657.648 240.574 670.942 241.777 673.556C241.852 673.718 241.944 673.871 242.024 674.029C242.951 675.853 242.803 677.522 242.744 679.512C236.318 669.959 233.933 656.562 234.574 645.223C235.156 634.939 239.071 624.364 241.683 614.386C245.201 600.948 248.415 587.429 252.06 574.025C255.408 561.71 259.402 549.189 261.77 536.664Z"/>
		<path fill="#12B2DD" d="M277.219 478.879C277.318 479.742 277.355 480.499 277.348 481.358C277.342 482.126 277.628 482.438 277.987 483.08C280.466 487.511 279.84 493.363 278.462 498.055C278.019 499.562 277.26 500.844 276.502 502.207C275.256 504.446 271.303 514.746 270.891 517.189C270.416 520.006 271.151 523.504 269.832 526.108C269.217 527.32 268.387 528.083 267.031 528.398C266.391 528.547 266.02 528.533 265.396 528.552L265.238 529.115C264.381 529.05 264.744 529.221 264.149 528.605C267.81 511.996 272.538 495.237 277.219 478.879Z"/>
		<path fill="#557488" d="M586.056 300.667C592.991 302.306 605.384 303.305 612.174 301.445C613.278 301.938 614.057 302.029 615.261 302.065C616.366 302.363 617.441 302.674 618.574 302.845C612.91 305.69 588.728 305.398 581.005 305.508C566.963 305.708 552.846 304.587 538.782 304.502L415.607 304.029L366.836 303.905C362.016 303.891 354.631 304.758 350.16 303.8L350.347 303.482C350.546 303.492 350.745 303.503 350.944 303.51C363.41 303.938 376.047 303.498 388.531 303.496L464.928 303.491L497.973 303.492C502.434 303.492 508.334 304.201 512.632 303.253L510.549 303.108L510.04 302.236C506.523 302.396 503.249 301.986 499.768 301.931C496.035 301.871 492.293 302.304 488.558 302.235C481.706 302.109 474.927 301.478 468.061 301.474L351.573 301.478C345.913 301.493 339.929 301.769 334.386 302.986C331.581 303.602 327.783 305.938 325.074 305.699C329.229 303.17 334.64 301.719 339.464 301.226C347.711 300.385 356.284 300.767 364.577 300.787L405.212 300.898Q476.202 300.728 547.187 301.5C551.923 301.531 584.524 302.293 586.365 301.571L586.056 300.667Z"/>
		<path fill="#264357" d="M420.465 736.922C420.71 736.783 420.943 736.624 421.198 736.506C424.396 735.03 490.183 735.278 498.72 735.902C499.672 735.972 500.323 736.239 501.171 736.643C497.43 736.909 489.348 735.857 486.563 737.417L446.552 737.454C441.227 737.459 431.947 736.57 427.01 737.972C424.854 737.511 422.645 737.248 420.465 736.922Z"/>
		<path fill="#FEFEFE" d="M551.514 371.564C553.591 371.386 555.635 371.217 557.71 371.538C563.024 372.361 567.55 375.631 570.666 379.917C574.204 384.782 575.963 390.653 576.574 396.58C577.916 409.611 575.646 423.756 573.981 436.693C571.061 459.378 567.154 481.712 563.699 504.294C573.357 502.595 588.538 497.563 597.386 497.172C598.816 497.109 599.965 497.364 601.191 498.101C603.878 499.716 605.875 502.685 606.496 505.739C607.126 508.829 607.265 512.371 605.391 515.074C603.997 517.085 601.727 518.183 599.495 519.017C590.958 522.208 571.29 524.854 561.399 526.721C558.371 547.891 555.317 581.275 561.053 601.838C562.924 608.546 566.288 616.923 572.771 620.328C575.86 621.95 579.424 621.998 582.698 620.926C595.262 616.811 605.129 601.198 609.464 589.472C611.605 583.681 612.978 576.934 615.631 571.428C616.785 570.464 617.907 570.032 619.411 570.114C623.134 570.315 626.909 573.256 629.166 576.039C632.299 579.903 632.937 583.367 632.396 588.203C630.637 603.929 616.348 623.502 604.286 633.175C595.745 640.025 585.673 644.542 574.528 643.23C564.682 642.07 556.047 636.306 550.045 628.585C529.884 602.657 534.224 562.651 537.872 532.085Q519.838 535.934 502.126 541.062Q492.94 543.453 483.828 546.114C480.435 552.143 477.85 558.802 474.868 565.06C464.069 587.716 440.915 639.248 418.745 650.474C411.044 654.374 401.867 655.272 393.679 652.373C385.006 649.301 377.13 640.116 373.567 631.857C372.078 628.406 371.329 624.399 372.891 620.833C373.854 618.633 375.668 617.156 377.875 616.296C392.933 610.423 391.299 626.755 401.553 631.008C403.614 631.862 405.703 631.648 407.733 630.809C422.162 624.848 447.543 571.213 454.635 555.507C445.037 558.209 436.013 563.147 426.756 566.828C422.734 568.427 419.616 569.213 415.477 567.265C412.617 565.919 410.453 562.645 409.497 559.723C408.918 557.953 409.269 556.129 410.123 554.524C415.828 543.808 454.331 532.191 466.112 528.569C468.892 523.656 471.008 518.24 473.286 513.07Q479.38 499.285 485.231 485.394Q495.183 462.382 505.55 439.554C512.653 423.576 519.64 407.112 528.158 391.841C533.832 381.668 540.056 374.807 551.514 371.564Z"/>
		<path fill="#264357" d="M551.242 395.798C552.327 396.162 553.048 396.743 553.7 397.689C555.266 399.963 554.97 404.043 554.873 406.709C554.447 418.39 552.349 430.145 550.652 441.703C547.35 464.184 543.428 486.596 540.317 509.099C526.039 511.617 511.433 515.512 497.449 519.352C496.732 519.486 496.031 519.564 495.306 519.64L495.088 518.696C496.227 513.608 499.909 508.353 501.983 503.478C512.612 478.499 523.096 453.51 534.311 428.782C538.987 418.472 543.934 404.312 551.242 395.798Z"/>
	</g>
	<g/>
</svg>
