<svg width="90" height="90" viewBox="0 0 90 90" fill="none" xmlns="http://www.w3.org/2000/svg">
<path d="M38.0979 71.8223C44.0658 71.8223 48.934 67.0745 49.1548 61.1608L49.1769 8.34513H58.825C58.6244 7.25952 58.514 6.1438 58.514 5H45.336L45.314 57.8157C45.0932 63.7294 40.225 68.4771 34.2571 68.4771C32.4029 68.4771 30.6551 68.0136 29.118 67.2049C31.1307 69.9962 34.4016 71.8223 38.0979 71.8223Z" fill="#25F4EE"/>
<path d="M37.5258 36.5005V33.3781C36.4542 33.2316 35.3666 33.1413 34.2569 33.1413C20.8823 33.1413 10 44.0235 10 57.4C10 65.6073 14.0997 72.8695 20.3565 77.2601C16.3191 72.9257 13.8428 67.1203 13.8428 60.7431C13.8428 47.5593 24.4161 36.8075 37.5278 36.5005H37.5258Z" fill="#25F4EE"/>
<path d="M76.8498 23.3356V26.2713C72.9027 25.4265 69.425 23.3055 66.8645 20.3657C69.7401 22.2419 73.1695 23.3356 76.8498 23.3356Z" fill="#25F4EE"/>
<path d="M66.8662 20.3651C64.0608 17.1444 62.3571 12.9404 62.3571 8.34311H58.8274C59.7565 13.3638 62.7364 17.6721 66.8662 20.3651Z" fill="#FE2C55"/>
<path d="M34.2572 46.3211C28.1488 46.3211 23.1783 51.2917 23.1783 57.4C23.1783 61.6541 25.5922 65.3507 29.118 67.2049C27.8036 65.3829 27.0211 63.1551 27.0211 60.7431C27.0211 54.6348 31.9916 49.6643 38.1 49.6643C39.2398 49.6643 40.3335 49.8529 41.3689 50.176V36.7212C40.2973 36.5747 39.2097 36.4844 38.1 36.4844C37.9795 36.4844 37.8607 36.4883 37.7419 36.4923C37.6708 36.4946 37.5994 36.497 37.5281 36.4985V46.8308C36.4927 46.5078 35.399 46.3191 34.2592 46.3191L34.2572 46.3211Z" fill="#FE2C55"/>
<path d="M76.8493 36.5127L76.8498 26.2713C78.0879 26.5362 79.3717 26.678 80.6901 26.678V39.8578C73.8573 39.8578 67.5242 37.6726 62.355 33.9622V60.7433C62.355 74.1178 51.4747 85 38.0981 85C31.0987 85 24.7857 82.0181 20.3549 77.2603C24.296 80.0275 29.088 81.6569 34.2572 81.6569C47.6319 81.6569 58.5142 70.7767 58.5142 57.4002V30.6171C63.6834 34.3274 70.0165 36.5127 76.8493 36.5127Z" fill="#FE2C55"/>
<path d="M58.5142 57.4002V30.6171C63.6834 34.3274 70.0165 36.5127 76.8493 36.5127L76.8498 26.2713C72.9027 25.4265 69.4251 23.3075 66.8645 20.3657C62.7347 17.6727 59.7543 13.3658 58.8252 8.34311H49.177L49.1549 61.1588C48.9342 67.0725 44.066 71.8203 38.0981 71.8203C34.4017 71.8203 31.1308 69.9942 29.1181 67.2029C25.5924 65.3467 23.1783 61.6504 23.1783 57.3983C23.1783 51.29 28.1489 46.3194 34.2573 46.3194C35.3971 46.3194 36.4907 46.5081 37.5262 46.8311V36.4988C24.4144 36.8058 13.8412 47.5575 13.8412 60.7414C13.8412 67.1186 16.3174 72.9239 20.3549 77.2583C24.294 80.0235 29.088 81.655 34.2573 81.655C47.6319 81.655 58.5142 70.7728 58.5142 57.3983L58.5142 57.4002Z" fill="#000008"/>
</svg>
