<svg width="90" height="90" viewBox="0 0 90 90" fill="none" xmlns="http://www.w3.org/2000/svg">
<path d="M83.3282 25.8014C82.4082 22.3373 79.6977 19.6086 76.2555 18.6827C70.0168 17 45 17 45 17C45 17 19.9832 17 13.7441 18.6827C10.3023 19.6086 7.59136 22.3373 6.67136 25.8014C5 32.0809 5 45.1818 5 45.1818C5 45.1818 5 58.2832 6.67136 64.5627C7.59136 68.0268 10.3023 70.755 13.7441 71.6813C19.9832 73.3636 45 73.3636 45 73.3636C45 73.3636 70.0168 73.3636 76.2555 71.6813C79.6977 70.755 82.4082 68.0268 83.3282 64.5627C85 58.2832 85 45.1818 85 45.1818C85 45.1818 85 32.0809 83.3282 25.8014Z" fill="#ED1F24"/>
<path d="M36.8125 57.0766L57.7216 45.1821L36.8125 33.2871V57.0766Z" fill="white"/>
</svg>
